<svg width="32" height="32" viewBox="0 0 32 32" fill="none" xmlns="http://www.w3.org/2000/svg">
<rect width="32" height="32" fill="white"/>
<path d="M0 3.34474C0 2.59953 0.599528 2 1.34474 2H3.89413C5.12681 2 6.21941 2.71719 6.72929 3.79298H29.7579C31.2315 3.79298 32.3073 5.19375 31.9207 6.61693L29.6234 15.1504C29.1472 16.9098 27.5503 18.1368 25.7293 18.1368H9.56444L9.86701 19.7337C9.99027 20.3669 10.545 20.8263 11.1893 20.8263H27.343C28.0882 20.8263 28.6877 21.4258 28.6877 22.1711C28.6877 22.9163 28.0882 23.5158 27.343 23.5158H11.1893C9.25067 23.5158 7.58656 22.1374 7.22796 20.238L4.33678 5.05367C4.29755 4.84076 4.11265 4.68947 3.89413 4.68947H1.34474C0.599528 4.68947 0 4.08995 0 3.34474ZM7.17193 27.9982C7.17193 27.6451 7.24149 27.2953 7.37665 26.969C7.51181 26.6427 7.70992 26.3462 7.95966 26.0965C8.2094 25.8468 8.50588 25.6487 8.83219 25.5135C9.15849 25.3783 9.50822 25.3088 9.8614 25.3088C10.2146 25.3088 10.5643 25.3783 10.8906 25.5135C11.2169 25.6487 11.5134 25.8468 11.7631 26.0965C12.0129 26.3462 12.211 26.6427 12.3462 26.969C12.4813 27.2953 12.5509 27.6451 12.5509 27.9982C12.5509 28.3514 12.4813 28.7012 12.3462 29.0275C12.211 29.3538 12.0129 29.6502 11.7631 29.9C11.5134 30.1497 11.2169 30.3478 10.8906 30.483C10.5643 30.6182 10.2146 30.6877 9.8614 30.6877C9.50822 30.6877 9.15849 30.6182 8.83219 30.483C8.50588 30.3478 8.2094 30.1497 7.95966 29.9C7.70992 29.6502 7.51181 29.3538 7.37665 29.0275C7.24149 28.7012 7.17193 28.3514 7.17193 27.9982ZM25.9982 25.3088C26.7115 25.3088 27.3956 25.5921 27.9 26.0965C28.4044 26.6009 28.6877 27.285 28.6877 27.9982C28.6877 28.7115 28.4044 29.3956 27.9 29.9C27.3956 30.4044 26.7115 30.6877 25.9982 30.6877C25.285 30.6877 24.6009 30.4044 24.0965 29.9C23.5921 29.3956 23.3088 28.7115 23.3088 27.9982C23.3088 27.285 23.5921 26.6009 24.0965 26.0965C24.6009 25.5921 25.285 25.3088 25.9982 25.3088Z" fill="black"/>
</svg>
