<svg width="32" height="32" viewBox="0 0 32 32" fill="none" xmlns="http://www.w3.org/2000/svg">
<path d="M4.87506 0.13646C5.40634 -0.107306 6.03138 -0.0198003 6.47516 0.361475L9.00033 2.52412L11.5255 0.361475C12.088 -0.119807 12.9193 -0.119807 13.4756 0.361475L16.0008 2.52412L18.526 0.361475C19.0885 -0.119807 19.9198 -0.119807 20.4761 0.361475L23.0012 2.52412L25.5264 0.361475C25.9702 -0.0198003 26.5952 -0.107306 27.1265 0.13646C27.6578 0.380226 28.0016 0.911511 28.0016 1.49905V30.501C28.0016 31.0885 27.6578 31.6198 27.1265 31.8635C26.5952 32.1073 25.9702 32.0198 25.5264 31.6385L23.0012 29.4759L20.4761 31.6385C19.9135 32.1198 19.0822 32.1198 18.526 31.6385L16.0008 29.4759L13.4756 31.6385C12.9131 32.1198 12.0818 32.1198 11.5255 31.6385L9.00033 29.4759L6.47516 31.6385C6.03138 32.0198 5.40634 32.1073 4.87506 31.8635C4.34377 31.6198 4 31.0885 4 30.501V1.49905C4 0.911511 4.34377 0.380226 4.87506 0.13646ZM10.0004 8.99954C9.45036 8.99954 9.00033 9.44957 9.00033 9.99961C9.00033 10.5496 9.45036 10.9997 10.0004 10.9997H22.0012C22.5512 10.9997 23.0012 10.5496 23.0012 9.99961C23.0012 9.44957 22.5512 8.99954 22.0012 8.99954H10.0004ZM9.00033 22.0004C9.00033 22.5504 9.45036 23.0005 10.0004 23.0005H22.0012C22.5512 23.0005 23.0012 22.5504 23.0012 22.0004C23.0012 21.4504 22.5512 21.0003 22.0012 21.0003H10.0004C9.45036 21.0003 9.00033 21.4504 9.00033 22.0004ZM10.0004 14.9999C9.45036 14.9999 9.00033 15.45 9.00033 16C9.00033 16.55 9.45036 17.0001 10.0004 17.0001H22.0012C22.5512 17.0001 23.0012 16.55 23.0012 16C23.0012 15.45 22.5512 14.9999 22.0012 14.9999H10.0004Z" fill="black"/>
</svg>
