<svg width="32" height="32" viewBox="0 0 32 32" fill="none" xmlns="http://www.w3.org/2000/svg">
<rect width="32" height="32" fill="white"/>
<path d="M14.0722 3.9499C14.4111 3.29434 14.1556 2.48879 13.5056 2.1499C12.8556 1.81101 12.0444 2.06657 11.7056 2.71657L6.53333 12.6666H1.77778C0.794444 12.6666 0 13.461 0 14.4443C0 15.4277 0.794444 16.2221 1.77778 16.2221L4.66111 27.7499C5.05556 29.3332 6.47778 30.4443 8.11111 30.4443H23.8889C25.5222 30.4443 26.9444 29.3332 27.3389 27.7499L30.2222 16.2221C31.2056 16.2221 32 15.4277 32 14.4443C32 13.461 31.2056 12.6666 30.2222 12.6666H25.4667L20.2944 2.71657C19.9556 2.06657 19.15 1.81101 18.4944 2.1499C17.8389 2.48879 17.5889 3.29434 17.9278 3.9499L22.4611 12.6666H9.53889L14.0722 3.9499ZM10.6667 18.8888V24.2221C10.6667 24.711 10.2667 25.111 9.77778 25.111C9.28889 25.111 8.88889 24.711 8.88889 24.2221V18.8888C8.88889 18.3999 9.28889 17.9999 9.77778 17.9999C10.2667 17.9999 10.6667 18.3999 10.6667 18.8888ZM16 17.9999C16.4889 17.9999 16.8889 18.3999 16.8889 18.8888V24.2221C16.8889 24.711 16.4889 25.111 16 25.111C15.5111 25.111 15.1111 24.711 15.1111 24.2221V18.8888C15.1111 18.3999 15.5111 17.9999 16 17.9999ZM23.1111 18.8888V24.2221C23.1111 24.711 22.7111 25.111 22.2222 25.111C21.7333 25.111 21.3333 24.711 21.3333 24.2221V18.8888C21.3333 18.3999 21.7333 17.9999 22.2222 17.9999C22.7111 17.9999 23.1111 18.3999 23.1111 18.8888Z" fill="black"/>
</svg>
