<svg width="32" height="32" viewBox="0 0 32 32" fill="none" xmlns="http://www.w3.org/2000/svg">
<path d="M28 0C27 0 20 2 20 11V18C20 20.2062 21.7938 22 24 22H26V30C26 31.1063 26.8937 32 28 32C29.1063 32 30 31.1063 30 30V22V15V2C30 0.89375 29.1063 0 28 0ZM6 1C6 0.4875 5.61875 0.0625 5.10625 0.00625C4.59375 -0.05 4.1375 0.2875 4.025 0.78125L2.13125 9.3C2.04375 9.69375 2 10.0937 2 10.4937C2 13.3625 4.19375 15.7188 7 15.975V30C7 31.1063 7.89375 32 9 32C10.1063 32 11 31.1063 11 30V15.975C13.8063 15.7188 16 13.3625 16 10.4937C16 10.0937 15.9562 9.69375 15.8687 9.3L13.975 0.78125C13.8625 0.28125 13.3937 -0.05 12.8875 0.00625C12.3812 0.0625 12 0.4875 12 1V9.3875C12 9.725 11.725 10 11.3875 10C11.0687 10 10.8062 9.75625 10.775 9.4375L9.99375 0.9125C9.95 0.39375 9.51875 0 9 0C8.48125 0 8.05 0.39375 8.00625 0.9125L7.23125 9.4375C7.2 9.75625 6.9375 10 6.61875 10C6.28125 10 6.00625 9.725 6.00625 9.3875V1H6ZM9.01875 10.5H9H8.98125L9 10.4563L9.01875 10.5Z" fill="black"/>
</svg>
